#N canvas -19 78 816 420 12;
#X msg 220 23 devides;
#X msg 445 34 close;
#X obj 221 101 print;
#X obj 318 79 comport 0 9600;
#X obj 461 291 hsl 128 15 0 1 0 0 empty empty ganho -2 -8 0 10 #606060
#000000 #000000 0 1;
#X obj 453 318 pack 1 50;
#X obj 453 368 line~;
#X obj 350 387 *~;
#X msg 329 218 60;
#X obj 395 272 mtof~;
#X msg 356 178 61;
#X msg 392 219 62;
#X msg 438 178 63;
#X msg 455 208 64;
#X msg 495 210 65;
#X msg 542 185 66;
#X msg 574 224 67;
#X msg 621 187 68;
#X msg 661 228 69;
#X msg 690 187 70;
#X msg 748 200 71;
#X msg 789 219 72;
#X floatatom 268 132 5 0 0 0 - - - 0;
#X obj 286 174 bng 15 250 50 0 empty empty empty 17 7 0 10 #fcfcfc
#000000 #000000;
#X obj 359 333 osc~ 200;
#X obj 358 477 output~;
#X obj 335 132 select 60 62 64 66 68 70 72 74 76 78 80 82 84;
#X msg 301 22 open /dev/ttyS0;
#X connect 0 0 3 0;
#X connect 1 0 3 0;
#X connect 3 0 2 0;
#X connect 3 0 22 0;
#X connect 3 0 26 0;
#X connect 4 0 5 0;
#X connect 5 0 6 0;
#X connect 6 0 7 1;
#X connect 7 0 25 0;
#X connect 7 0 25 1;
#X connect 8 0 9 0;
#X connect 9 0 24 0;
#X connect 10 0 9 0;
#X connect 11 0 9 0;
#X connect 12 0 9 0;
#X connect 13 0 9 0;
#X connect 14 0 9 0;
#X connect 15 0 9 0;
#X connect 16 0 9 0;
#X connect 17 0 9 0;
#X connect 18 0 9 0;
#X connect 19 0 9 0;
#X connect 20 0 9 0;
#X connect 21 0 9 0;
#X connect 24 0 7 0;
#X connect 26 0 23 0;
#X connect 26 0 8 0;
#X connect 26 1 10 0;
#X connect 26 2 11 0;
#X connect 26 3 12 0;
#X connect 26 4 13 0;
#X connect 26 5 14 0;
#X connect 26 6 15 0;
#X connect 26 7 16 0;
#X connect 26 8 17 0;
#X connect 26 9 18 0;
#X connect 26 10 19 0;
#X connect 26 11 20 0;
#X connect 26 12 21 0;
#X connect 27 0 3 0;
